<?xml version="1.0" encoding="utf-8"?>
<!-- Generator: Adobe Illustrator 24.3.0, SVG Export Plug-In . SVG Version: 6.00 Build 0)  -->
<svg version="1.1" id="Layer_1" xmlns="http://www.w3.org/2000/svg" xmlns:xlink="http://www.w3.org/1999/xlink" x="0px" y="0px"
	 viewBox="0 0 500 500" style="enable-background:new 0 0 500 500;" xml:space="preserve">
<style type="text/css">
	.st0{fill:#2D82D2;}
	.st1{fill:#164169;}
</style>
<path class="st0" d="M853.2,655.2l-19.1,1.7c-19.1,1.7-57.2,5.2-62.7-25.4c-5.3-30.4,22.4-94.7,31.5-140.3
	c9.6-45.7,0.2-71.9-5-102.7c-5.4-30.1-6.6-64.8-48.9-57.6c-41.7,7.3-123.8,55.8-143.9,40.2c-20-15,22.6-94.9,13.6-121.1
	c-9.1-26.9-69.4-1.1-107.4,2.6c-38.4,3.2-54.8-16.1-59.9-46.3c-5.4-30.6,0-72.5-12.4-95.2c-12.4-23.3-43.7-26.8-56.2-50.1
	c-12.7-23-6.9-64.6-4.2-85.5l2.8-21l65.8-67.7l8.1,9.6c8.1,9.6,24.3,28.7,40.8,48c16.2,19.1,32.5,38.2,48.9,57.6
	C561.3,21,577.6,40.1,594,59.5c16.2,19.1,32.5,38.2,48.9,57.6c16.2,19,32.5,38.2,48.9,57.6c16.1,19,32.5,38.2,48.5,57.1
	c16.5,19.4,32.8,38.7,48.9,57.6c16.4,19.3,32.8,38.7,48.9,57.6c16.4,19.3,32.8,38.7,48.9,57.6c16.4,19.3,32.5,38.2,48.9,57.6
	c16.3,19.2,32.5,38.2,40.7,47.9l8.2,9.7L853.2,655.2z"/>
<path class="st1" d="M567,16.8c8.2,17.1,6.6,37.5-3.3,52.8c-10,15.3-28.3,25.3-48.4,27.6c-20.2,2.3-42.2-3-58.2-15.6
	c-15.9-12.5-25.7-32.3-25-51c0.8-18.7,12.1-36.4,29-45.9c16.9-9.5,39.3-10.8,59.4-4.7C540.7-13.8,558.8-0.3,567,16.8z"/>
</svg>
